<?xml version="1.0" encoding="UTF-8"?>
<svg width="800px" height="800px" viewBox="0 0 800 800" version="1.1" xmlns="http://www.w3.org/2000/svg">
  <g stroke="none" stroke-width="1" fill="none" fill-rule="evenodd">
    <g transform="translate(0, 0)" fill="#FFFFFF">
      <circle cx="400" cy="400" r="10"></circle>
      <circle cx="400" cy="200" r="10"></circle>
      <circle cx="400" cy="600" r="10"></circle>
      <circle cx="200" cy="400" r="10"></circle>
      <circle cx="600" cy="400" r="10"></circle>
      <circle cx="200" cy="200" r="10"></circle>
      <circle cx="600" cy="200" r="10"></circle>
      <circle cx="200" cy="600" r="10"></circle>
      <circle cx="600" cy="600" r="10"></circle>
      <circle cx="100" cy="100" r="8"></circle>
      <circle cx="100" cy="300" r="8"></circle>
      <circle cx="100" cy="500" r="8"></circle>
      <circle cx="100" cy="700" r="8"></circle>
      <circle cx="300" cy="100" r="8"></circle>
      <circle cx="300" cy="300" r="8"></circle>
      <circle cx="300" cy="500" r="8"></circle>
      <circle cx="300" cy="700" r="8"></circle>
      <circle cx="500" cy="100" r="8"></circle>
      <circle cx="500" cy="300" r="8"></circle>
      <circle cx="500" cy="500" r="8"></circle>
      <circle cx="500" cy="700" r="8"></circle>
      <circle cx="700" cy="100" r="8"></circle>
      <circle cx="700" cy="300" r="8"></circle>
      <circle cx="700" cy="500" r="8"></circle>
      <circle cx="700" cy="700" r="8"></circle>
      <circle cx="50" cy="50" r="5"></circle>
      <circle cx="50" cy="150" r="5"></circle>
      <circle cx="50" cy="250" r="5"></circle>
      <circle cx="50" cy="350" r="5"></circle>
      <circle cx="50" cy="450" r="5"></circle>
      <circle cx="50" cy="550" r="5"></circle>
      <circle cx="50" cy="650" r="5"></circle>
      <circle cx="50" cy="750" r="5"></circle>
      <circle cx="150" cy="50" r="5"></circle>
      <circle cx="150" cy="150" r="5"></circle>
      <circle cx="150" cy="250" r="5"></circle>
      <circle cx="150" cy="350" r="5"></circle>
      <circle cx="150" cy="450" r="5"></circle>
      <circle cx="150" cy="550" r="5"></circle>
      <circle cx="150" cy="650" r="5"></circle>
      <circle cx="150" cy="750" r="5"></circle>
      <circle cx="250" cy="50" r="5"></circle>
      <circle cx="250" cy="150" r="5"></circle>
      <circle cx="250" cy="250" r="5"></circle>
      <circle cx="250" cy="350" r="5"></circle>
      <circle cx="250" cy="450" r="5"></circle>
      <circle cx="250" cy="550" r="5"></circle>
      <circle cx="250" cy="650" r="5"></circle>
      <circle cx="250" cy="750" r="5"></circle>
      <circle cx="350" cy="50" r="5"></circle>
      <circle cx="350" cy="150" r="5"></circle>
      <circle cx="350" cy="250" r="5"></circle>
      <circle cx="350" cy="350" r="5"></circle>
      <circle cx="350" cy="450" r="5"></circle>
      <circle cx="350" cy="550" r="5"></circle>
      <circle cx="350" cy="650" r="5"></circle>
      <circle cx="350" cy="750" r="5"></circle>
      <circle cx="450" cy="50" r="5"></circle>
      <circle cx="450" cy="150" r="5"></circle>
      <circle cx="450" cy="250" r="5"></circle>
      <circle cx="450" cy="350" r="5"></circle>
      <circle cx="450" cy="450" r="5"></circle>
      <circle cx="450" cy="550" r="5"></circle>
      <circle cx="450" cy="650" r="5"></circle>
      <circle cx="450" cy="750" r="5"></circle>
      <circle cx="550" cy="50" r="5"></circle>
      <circle cx="550" cy="150" r="5"></circle>
      <circle cx="550" cy="250" r="5"></circle>
      <circle cx="550" cy="350" r="5"></circle>
      <circle cx="550" cy="450" r="5"></circle>
      <circle cx="550" cy="550" r="5"></circle>
      <circle cx="550" cy="650" r="5"></circle>
      <circle cx="550" cy="750" r="5"></circle>
      <circle cx="650" cy="50" r="5"></circle>
      <circle cx="650" cy="150" r="5"></circle>
      <circle cx="650" cy="250" r="5"></circle>
      <circle cx="650" cy="350" r="5"></circle>
      <circle cx="650" cy="450" r="5"></circle>
      <circle cx="650" cy="550" r="5"></circle>
      <circle cx="650" cy="650" r="5"></circle>
      <circle cx="650" cy="750" r="5"></circle>
      <circle cx="750" cy="50" r="5"></circle>
      <circle cx="750" cy="150" r="5"></circle>
      <circle cx="750" cy="250" r="5"></circle>
      <circle cx="750" cy="350" r="5"></circle>
      <circle cx="750" cy="450" r="5"></circle>
      <circle cx="750" cy="550" r="5"></circle>
      <circle cx="750" cy="650" r="5"></circle>
      <circle cx="750" cy="750" r="5"></circle>
    </g>
  </g>
</svg>
